<svg width="40" height="48" viewBox="0 0 40 48" fill="none" xmlns="http://www.w3.org/2000/svg">
    <g clip-path="url(#clip0_851_484)">
        <path d="M9.45556 36.633L8.54127 36.9631L8.53088 36.935C8.83738 36.8455 9.13764 36.7393 9.42959 36.6174C9.43894 36.6216 9.44725 36.6268 9.45556 36.633Z" fill="#FE5F55"/>
        <path d="M2.93714 33.8749C2.93714 33.8749 2.93506 33.8749 2.93402 33.8728L2.93714 33.8749ZM7.68415 34.5767C7.66026 34.5829 7.63844 34.5881 7.61558 34.5944L7.68415 34.5767Z" fill="#FE5F55"/>
        <path d="M31.8379 0.140564C32.2587 0.0478959 32.6951 0 33.1429 0C36.5226 0 39.2727 2.7561 39.2727 6.14317C39.2727 8.5161 37.9231 10.5787 35.9532 11.6012L35.9688 11.6449L35.4888 11.8188C35.3101 11.8928 35.1273 11.9594 34.9403 12.0167L31.3434 13.313H31.3423L30.6556 13.5618L29.5034 13.9773L28.9184 14.1876H28.9174L26.3709 15.107L25.0296 15.5912L23.0649 16.2992H23.0639L20.5112 17.2206H20.5101L18.7709 17.8475H18.7699L14.0073 19.5655C14.0623 19.452 14.1143 19.3374 14.1642 19.2208C14.5486 18.3223 14.7855 17.3456 14.8426 16.321C14.8519 16.1576 14.8571 15.9931 14.8571 15.8265C14.8571 15.1111 14.7699 14.4156 14.6047 13.7503C13.9751 11.1983 12.2109 9.0898 9.88052 7.99653L25.3662 2.41145L27.2135 1.74508H27.2145M29.0899 26.8987C28.8738 26.9904 28.6504 27.0705 28.4218 27.1372L27.4338 27.4933L25.4888 28.1951L24.8956 28.4095H24.8945L23.0566 29.0718L13.9034 32.3724C14.3107 31.5269 14.5839 30.6055 14.6951 29.6351C14.7335 29.306 14.7532 28.9718 14.7532 28.6334C14.7532 28.0795 14.7013 27.538 14.6005 27.0133C14.4613 26.2751 14.2265 25.5702 13.9117 24.9121C13.5377 24.1281 13.0483 23.4096 12.4665 22.7776L18.0925 20.7483L19.386 20.2818L20.7439 19.7924L25.8732 17.9422L30.3678 16.321C31.0857 16.8594 31.6821 17.5518 32.1081 18.3493C32.5694 19.2115 32.8312 20.1964 32.8312 21.2408C32.8312 22.0633 32.6691 22.8484 32.3751 23.5658C32.1714 24.0625 31.9055 24.5258 31.5865 24.9465C31.5449 25.0027 31.5023 25.0568 31.4577 25.111C30.8301 25.8846 30.0187 26.5031 29.0899 26.8987ZM7.78805 21.7697C7.39532 21.8728 6.98805 21.9374 6.56935 21.9603C6.45818 21.9665 6.34597 21.9696 6.23377 21.9696C5.45039 21.9696 4.70026 21.8218 4.01039 21.5511C3.56987 21.3793 3.15532 21.1575 2.77091 20.893C2.70649 20.8493 2.64416 20.8035 2.58182 20.7566C1.07948 19.6373 0.103896 17.8433 0.103896 15.8265C0.103896 13.3619 1.55948 11.2316 3.65403 10.2549L3.64987 10.2435L3.79117 10.1925C4.03532 10.0852 4.28883 9.99462 4.54857 9.91965C4.55169 9.91965 4.5548 9.91757 4.55792 9.91653C5.09091 9.76451 5.65299 9.6833 6.23377 9.6833C9.19584 9.6833 11.6738 11.8001 12.241 14.603C12.321 14.9987 12.3636 15.4079 12.3636 15.8265C12.3636 16.3252 12.3034 16.8115 12.1912 17.2769C11.8462 18.6981 11.0068 19.9278 9.86701 20.7712C9.84623 20.7868 9.82545 20.8014 9.80468 20.817C9.3652 21.1335 8.88104 21.3949 8.36364 21.5865M7.68416 34.5767C7.20831 34.6954 6.64104 34.7766 6.12987 34.7766C5.65091 34.7766 5.18545 34.7214 4.73662 34.6162H4.73558C4.09143 34.4652 3.29247 34.0894 2.7439 33.752M2.7439 33.752C1.09195 32.6504 0 30.7669 0 28.6334C0 26.5 1.00987 24.759 2.55896 23.6429C3.00156 23.8532 3.4639 24.0271 3.9439 24.1593C4.67325 24.3613 5.44104 24.4685 6.23377 24.4685C7.06701 24.4685 7.87221 24.3498 8.63481 24.1281C9.02961 24.0125 9.41195 23.8709 9.78182 23.7033C9.79429 23.7116 9.80779 23.722 9.82026 23.7324C10.534 24.2728 11.1273 24.9673 11.5491 25.7649C11.8899 26.4094 12.1195 27.1205 12.2119 27.8744C12.2442 28.1232 12.2597 28.3762 12.2597 28.6334C12.2597 29.3331 12.1423 30.0068 11.9252 30.6336C11.4691 31.9601 10.5704 33.0825 9.40779 33.8218C8.88208 34.157 8.3013 34.4142 7.68416 34.5767M7.78805 47.8001C7.29143 47.9302 6.76987 48 6.23377 48C2.85403 48 0.103896 45.2439 0.103896 41.8568C0.103896 39.6765 1.2426 37.7586 2.95584 36.6685C3.26338 36.7913 3.58026 36.8965 3.90442 36.9829C4.61507 37.1745 5.36104 37.2755 6.12987 37.2755C6.96312 37.2755 7.76831 37.1568 8.53091 36.935C8.8374 36.8455 9.13766 36.7393 9.42961 36.6174C9.43896 36.6216 9.44727 36.6268 9.45558 36.6331C10.2473 37.1245 10.9195 37.793 11.4171 38.5812C12.0166 39.5297 12.3636 40.6542 12.3636 41.8568C12.3636 44.7056 10.4177 47.1087 7.78805 47.8001ZM35.4888 37.8492L35.4805 37.8523H35.4774C35.3101 37.9231 35.1387 37.9856 34.9631 38.0397L34.9506 38.0439H34.9465L34.9403 38.047L31.3434 39.3433H31.3423L29.5044 40.0076H29.5034L14.0073 45.5958C14.5517 44.464 14.8571 43.1948 14.8571 41.8568C14.8571 40.3596 14.4748 38.9498 13.8036 37.7211C13.3818 36.9475 12.8447 36.2447 12.2151 35.6377L24.5766 31.1792L25.9127 30.6981L27.3444 30.1817L29.199 29.5132L29.2083 29.5101L29.9335 29.2477V29.2519C30.8426 28.8833 31.6727 28.3637 32.3958 27.7244C32.9475 27.2392 33.4358 26.6832 33.8483 26.072C36.8977 26.4229 39.2727 29.0259 39.2727 32.1735C39.2727 34.5465 37.9231 36.6091 35.9532 37.6316" fill="#FE5F55"/>
        <path d="M39.2727 32.1735C39.2727 34.5465 37.9231 36.6091 35.9533 37.6316C35.8016 37.7107 35.6468 37.7826 35.4889 37.8492L35.4805 37.8523H35.4774L34.9631 38.0397L34.9507 38.0439H34.9465L34.9403 38.047L31.3434 39.3433H31.3424L29.5044 40.0076H29.5034L14.0073 45.5958C14.5517 44.464 14.8572 43.1948 14.8572 41.8568C14.8572 40.3596 14.4748 38.9498 13.8037 37.7211C13.3818 36.9475 12.8447 36.2447 12.2151 35.6377L24.5766 31.1792L25.9128 30.6981L27.3444 30.1817L29.199 29.5132L29.2083 29.5101C29.4556 29.4351 29.6977 29.3487 29.9346 29.2519C30.8426 28.8833 31.6727 28.3637 32.3959 27.7244C32.9476 27.2392 33.4359 26.6832 33.8483 26.072C36.8977 26.4229 39.2727 29.0259 39.2727 32.1735Z" fill="#FE5F55"/>
        <path d="M12.3636 41.8568C12.3636 44.7056 10.4176 47.1087 7.78804 47.8001C7.29141 47.9302 6.76986 48 6.23375 48C2.85401 48 0.103882 45.2439 0.103882 41.8568C0.103882 39.6765 1.24258 37.7586 2.95583 36.6685C3.26336 36.7913 3.58025 36.8965 3.9044 36.9829C4.61505 37.1745 5.36102 37.2755 6.12986 37.2755C6.9631 37.2755 7.7683 37.1568 8.5309 36.935L8.54128 36.9631L9.45557 36.6331C10.2473 37.1245 10.9195 37.793 11.4171 38.5812C12.0166 39.5297 12.3636 40.6542 12.3636 41.8568Z" fill="#FE5F55"/>
    </g>
</svg>