<svg width="28" height="28" viewBox="0 0 28 28" fill="none" xmlns="http://www.w3.org/2000/svg">
<g clip-path="url(#clip0_104_4122)">
<path d="M10.5001 4.66669H5.83341C5.18908 4.66669 4.66675 5.18902 4.66675 5.83335V10.5C4.66675 11.1444 5.18908 11.6667 5.83341 11.6667H10.5001C11.1444 11.6667 11.6667 11.1444 11.6667 10.5V5.83335C11.6667 5.18902 11.1444 4.66669 10.5001 4.66669Z" stroke="#48E5C2" stroke-width="1.75" stroke-linecap="round" stroke-linejoin="round"/>
<path d="M22.1666 4.66669H17.4999C16.8556 4.66669 16.3333 5.18902 16.3333 5.83335V10.5C16.3333 11.1444 16.8556 11.6667 17.4999 11.6667H22.1666C22.8109 11.6667 23.3333 11.1444 23.3333 10.5V5.83335C23.3333 5.18902 22.8109 4.66669 22.1666 4.66669Z" stroke="#48E5C2" stroke-width="1.75" stroke-linecap="round" stroke-linejoin="round"/>
<path d="M10.5001 16.3333H5.83341C5.18908 16.3333 4.66675 16.8556 4.66675 17.5V22.1666C4.66675 22.811 5.18908 23.3333 5.83341 23.3333H10.5001C11.1444 23.3333 11.6667 22.811 11.6667 22.1666V17.5C11.6667 16.8556 11.1444 16.3333 10.5001 16.3333Z" stroke="#48E5C2" stroke-width="1.75" stroke-linecap="round" stroke-linejoin="round"/>
<path d="M22.1666 16.3333H17.4999C16.8556 16.3333 16.3333 16.8556 16.3333 17.5V22.1666C16.3333 22.811 16.8556 23.3333 17.4999 23.3333H22.1666C22.8109 23.3333 23.3333 22.811 23.3333 22.1666V17.5C23.3333 16.8556 22.8109 16.3333 22.1666 16.3333Z" stroke="#48E5C2" stroke-width="1.75" stroke-linecap="round" stroke-linejoin="round"/>
</g>
<defs>
<clipPath id="clip0_104_4122">
<rect width="28" height="28" fill="white"/>
</clipPath>
</defs>
</svg>
