<svg width="30" height="30" viewBox="0 0 30 30" fill="none" xmlns="http://www.w3.org/2000/svg">
    <g clip-path="url(#clip0_851_2304)">
    <path d="M15 30C23.3125 30 30 23.3125 30 15C30 6.68745 23.3125 0 15 0C6.68745 0 0 6.68745 0 15C0 23.3125 6.68745 30 15 30Z" fill="#2775CA"/>
    <path d="M19.125 17.375C19.125 15.1875 17.8125 14.4375 15.1875 14.1251C13.3125 13.875 12.9375 13.3751 12.9375 12.5C12.9375 11.6249 13.5625 11.0626 14.8125 11.0626C15.9375 11.0626 16.5625 11.4376 16.875 12.3751C16.9375 12.5626 17.125 12.6875 17.3125 12.6875H18.3124C18.5625 12.6875 18.75 12.5 18.75 12.2501V12.1876C18.4999 10.8125 17.3749 9.75005 15.9375 9.6251V8.1251C15.9375 7.87505 15.75 7.68755 15.4375 7.625H14.5C14.25 7.625 14.0625 7.8125 13.9999 8.1251V9.56255C12.1249 9.8126 10.9375 11.0625 10.9375 12.6251C10.9375 14.6876 12.1875 15.5 14.8125 15.8126C16.5625 16.1251 17.125 16.5001 17.125 17.5001C17.125 18.5002 16.2499 19.1876 15.0625 19.1876C13.4374 19.1876 12.8749 18.5 12.6874 17.5625C12.625 17.3126 12.4375 17.1875 12.25 17.1875H11.1874C10.9375 17.1875 10.75 17.375 10.75 17.6251V17.6876C10.9999 19.25 12 20.375 14.0625 20.6876V22.1876C14.0625 22.4375 14.25 22.625 14.5624 22.6876H15.4999C15.75 22.6876 15.9375 22.5001 16 22.1876V20.6876C17.875 20.375 19.125 19.0625 19.125 17.375Z" fill="white"/>
    <path d="M11.8125 23.9374C6.9375 22.1875 4.43745 16.75 6.25005 11.9374C7.18755 9.3124 9.25005 7.31245 11.8125 6.37495C12.0625 6.25 12.1875 6.0625 12.1875 5.7499V4.87495C12.1875 4.6249 12.0625 4.4374 11.8125 4.375C11.7499 4.375 11.625 4.375 11.5624 4.4374C5.625 6.3124 2.37495 12.625 4.24995 18.5624C5.37495 22.0624 8.0625 24.75 11.5624 25.875C11.8125 25.9999 12.0625 25.875 12.1249 25.6249C12.1875 25.5625 12.1875 25.5 12.1875 25.375V24.4999C12.1875 24.3124 12 24.0625 11.8125 23.9374ZM18.4375 4.4374C18.1875 4.31245 17.9374 4.4374 17.875 4.68745C17.8125 4.75 17.8125 4.8124 17.8125 4.9375V5.81245C17.8125 6.0625 18 6.3124 18.1875 6.4375C23.0625 8.1874 25.5625 13.6249 23.7499 18.4375C22.8124 21.0625 20.7499 23.0625 18.1875 24C17.9374 24.1249 17.8125 24.3124 17.8125 24.625V25.5C17.8125 25.75 17.9374 25.9375 18.1875 25.9999C18.25 25.9999 18.375 25.9999 18.4375 25.9375C24.375 24.0625 27.625 17.7499 25.75 11.8124C24.625 8.24995 21.8749 5.5624 18.4375 4.4374Z" fill="white"/>
    </g>
</svg>
